PathFileType	4	(X/Y/Z)	D:\TRACE\spotREDO_2-26-24\spot_Both_Motion_1_9-v60.trc
DataRate	CameraRate	NumFrames	NumMarkers	Units	OrigDataRate	OrigDataStartFrame	OrigNumFrames
100.00	100.00	      38	9	mm	100.00	3501	      7000
Frame#	Time	front left toe			Front right toe			aft left toe			aft right toe			Arm			FL body			FR body			AL Body			AR Body			
		X1	Y1	Z1	X2	Y2	Z2	X3	Y3	Z3	X4	Y4	Z4	X5	Y5	Z5	X6	Y6	Z6	X7	Y7	Z7	X8	Y8	Z8	X9	Y9	Z9	

3501	35.000	-257.36600	124.26975	-466.38214	127.58482	22.50410	-408.16574	-316.45541	16.41546	155.98616	108.13144	21.08239	185.14140	-124.57658	692.56720	-800.25201	-129.33618	570.33771	-493.14383	25.43978	575.50287	-483.13654	-192.27180	561.54004	388.79852	-51.66529	567.24683	399.91702	
3502	35.010	-262.04300	129.64143	-466.06671	128.00224	22.59210	-408.12799	-316.21622	16.39470	156.00017	108.33843	21.15535	185.43951	-125.17278	692.64594	-799.59589	-128.97461	570.19745	-492.54785	25.41307	575.54492	-482.38275	-193.13327	561.33783	389.23129	-52.54167	566.96246	400.54797	
3503	35.020	-262.82562	133.41595	-467.49173	128.53178	23.01759	-407.94504	-315.62204	16.42292	156.28964	108.62370	20.94820	185.23932	-126.07696	693.34052	-799.77802	-129.05450	570.02020	-491.74811	25.58368	575.53369	-481.55606	-193.62131	561.19019	390.17480	-53.00003	567.16418	401.53226	
3504	35.030	-264.32666	136.27278	-468.80038	128.78343	23.45030	-408.02484	-314.97891	16.27897	156.23683	109.54436	20.77514	185.40413	-126.65411	693.77417	-799.41650	-129.89180	569.76868	-491.11746	24.99672	575.42120	-480.87503	-193.57210	561.21887	390.79651	-53.07381	567.17926	402.21686	
3505	35.040	-264.72449	135.58359	-469.06744	129.22563	23.92003	-407.85376	-314.56674	16.24481	156.39713	109.82440	20.64771	185.33299	-126.79372	695.61359	-799.48267	-130.98378	569.64746	-490.49521	23.87435	575.55273	-480.46832	-193.44745	561.06244	391.41101	-53.10460	567.28082	402.50067	
3506	35.050	-264.14774	134.03026	-468.61804	129.27899	24.11967	-408.01285	-313.77771	16.01934	156.63036	110.98990	20.95931	185.39261	-126.71970	697.94598	-799.46838	-132.06369	569.53937	-490.15094	22.65793	575.86987	-480.31775	-193.40813	560.88690	392.04541	-53.08015	567.32452	402.90594	
3507	35.060	-264.29739	133.21898	-468.23813	129.52692	24.64101	-408.13760	-312.73471	15.77085	156.80258	111.51189	20.94300	185.43504	-125.90739	700.79248	-799.11353	-133.37051	569.66797	-489.52081	21.35530	576.21368	-479.86005	-193.48845	560.56512	392.72858	-52.97026	567.17090	403.32709	
3508	35.070	-263.82364	132.87595	-468.03891	129.98294	25.41977	-407.99243	-312.42291	15.89462	156.50809	112.19859	20.80112	185.38878	-125.61103	703.92554	-798.80731	-134.95486	570.09094	-489.00708	19.97580	576.78149	-479.70755	-193.65041	560.22028	393.15936	-52.98729	566.90814	403.81247	
3509	35.080	-265.38583	133.44659	-468.72046	130.42058	25.48941	-408.40076	-311.93347	15.78270	156.96722	112.40625	20.85615	185.29103	-124.74419	706.61072	-798.63947	-136.19714	570.49872	-488.37726	18.52249	577.44543	-479.51474	-193.76006	559.68109	393.64243	-53.07626	566.68390	404.21863	
3510	35.090	-266.54706	133.67537	-469.00208	130.87735	26.15803	-408.25687	-311.44333	15.61910	157.05237	113.03339	21.06824	185.31203	-123.96358	708.83667	-798.55054	-137.61264	571.46057	-488.07819	17.17244	578.18524	-479.05377	-194.17462	559.21045	394.25696	-53.70001	566.16174	404.43396	
3511	35.100	-268.43527	134.45029	-469.57181	131.73499	26.63945	-408.08060	-310.39771	15.06426	157.38573	113.71236	21.14391	185.38971	-123.30433	710.48505	-798.35242	-139.03676	572.44226	-487.74466	16.01490	579.01697	-478.80252	-194.81465	558.80859	394.77859	-54.05219	565.16132	404.53049	
3512	35.110	-270.19864	134.92490	-470.03226	132.21169	26.97490	-408.12561	-309.99185	14.88049	157.52412	114.35110	20.69148	185.52374	-122.99783	711.63470	-798.61768	-140.03574	573.63739	-487.36273	15.01664	580.12988	-478.35672	-195.64435	558.20459	395.16422	-54.88766	564.87073	405.15417	
3513	35.120	-271.59161	134.55554	-470.10623	132.64462	27.06020	-408.14728	-309.65103	14.79131	157.61868	115.04181	20.73131	185.73425	-122.68615	712.52411	-798.82672	-141.04721	574.81866	-486.90533	14.06325	580.66089	-477.52325	-196.78136	557.72791	395.46698	-56.24161	564.19788	405.65616	
3514	35.130	-273.51279	133.45256	-470.30911	133.02374	27.08911	-408.18848	-309.10315	14.76329	157.70595	115.09472	20.70724	185.80122	-122.57704	712.84406	-798.91553	-141.39912	575.85968	-486.47427	13.10315	582.09485	-477.55762	-198.15219	557.40143	395.83597	-57.46857	563.42334	405.70490	
3515	35.140	-275.62564	130.12709	-471.05127	134.45279	27.70449	-407.71063	-308.72171	14.50138	157.75174	115.93117	20.98689	185.81133	-122.25784	712.81775	-799.02271	-142.35721	577.07306	-485.93814	12.38866	582.79010	-477.24133	-199.49338	557.18152	395.98334	-58.67556	562.85858	405.95996	
3516	35.150	-278.03174	124.62911	-471.61032	135.45512	28.09440	-407.45862	-308.08334	14.31335	157.71915	116.61871	21.17742	185.96175	-122.18893	712.59222	-799.13763	-143.16833	577.91760	-485.69678	11.46915	583.67737	-476.66797	-201.02725	557.09509	396.32806	-60.20765	563.07245	406.63675	
3517	35.160	-280.17017	116.44854	-472.28281	135.48825	28.15515	-407.78668	-307.51437	14.16590	157.74388	117.09372	21.06758	186.08339	-122.23074	712.30493	-799.14459	-144.39436	579.20868	-485.59186	10.61215	584.31140	-476.31436	-202.45461	557.03613	396.45258	-61.95675	562.75208	407.04395	
3518	35.170	-282.29620	107.17337	-473.03763	135.98427	28.50694	-407.75394	-306.85678	13.83803	157.98950	117.79249	21.10709	186.25459	-122.31899	711.96490	-799.05011	-145.16319	579.87878	-485.53790	9.65005	585.30981	-475.96811	-204.04997	557.24261	396.64578	-62.89869	562.42969	406.97610	
3519	35.180	-283.52267	96.23186	-472.93011	136.53735	28.53364	-407.89319	-306.34314	13.81270	158.15967	118.08452	21.26400	186.29471	-122.44011	711.60883	-799.12286	-146.49928	580.72894	-485.15503	8.44513	585.94794	-475.82712	-205.44827	557.18933	396.71823	-64.85538	562.88239	407.50626	
3520	35.190	-284.36655	89.07991	-472.93527	137.23160	29.01025	-407.77054	-305.63718	13.54534	158.15712	118.83325	21.61117	186.41762	-122.47923	711.22632	-799.25732	-147.67183	581.16650	-485.21582	7.18521	586.50891	-475.72153	-207.02824	557.18793	396.69629	-66.35818	562.31995	407.05777	
3521	35.200	-285.19641	82.51967	-471.44882	138.33817	29.75360	-407.42276	-304.95807	13.20946	158.15326	119.31008	21.86030	186.32915	-122.23378	710.91565	-799.16895	-149.13133	581.49994	-485.39255	5.79612	587.07300	-475.75031	-208.55827	557.11981	396.63452	-67.64902	562.37299	407.12244	
3522	35.210	-286.91513	73.17549	-470.74292	138.98112	30.04498	-407.53177	-304.28433	12.94523	158.08821	119.68559	21.85404	186.07735	-121.98763	710.73016	-799.17609	-150.67752	581.80536	-485.13205	4.07556	587.37915	-475.82498	-210.07104	557.33527	396.69934	-69.26595	562.65875	406.92679	
3523	35.220	-288.94073	61.99250	-471.77219	139.38930	30.31797	-407.66037	-303.46805	12.88903	158.18465	120.49884	21.93406	186.02791	-121.95734	710.60748	-799.21332	-152.30350	582.03137	-485.25085	2.56683	587.66132	-475.88876	-211.46230	557.38892	396.68930	-70.63292	563.45044	407.37054	
3524	35.230	-289.98950	50.16365	-473.79660	139.55730	30.23701	-407.96536	-302.87976	12.85430	158.37991	121.22504	22.23646	185.92375	-121.76244	710.51471	-799.16498	-154.15913	582.38214	-485.39478	0.70160	588.02112	-475.98016	-212.79639	557.80322	396.61655	-71.83745	563.04999	407.16443	
3525	35.240	-290.28113	39.53794	-475.20581	140.46529	30.96642	-407.58929	-301.93259	12.65460	158.61421	121.84745	22.31949	185.81294	-121.43413	710.47559	-799.20300	-155.94789	582.73358	-485.45825	-1.08772	588.31958	-475.98715	-214.38416	558.03455	396.63184	-73.67613	563.85889	407.28683	
3526	35.250	-289.37213	32.51002	-477.59674	141.28389	31.00192	-407.85617	-301.10052	12.37058	158.48370	122.18345	22.31229	185.65465	-121.19589	710.56140	-799.16516	-158.02687	582.95398	-485.47095	-3.03942	588.59015	-476.14560	-215.81482	558.06531	396.48163	-75.55790	564.15820	406.91901	
3527	35.260	-289.93423	31.13960	-477.24945	141.76910	31.17522	-408.14795	-300.60080	12.19972	158.47653	123.35535	22.42923	185.66364	-121.01113	710.67572	-799.15808	-159.55794	584.22083	-485.47656	-4.86571	589.65045	-476.31525	-217.66907	558.06598	396.33917	-76.74720	563.23694	406.63364	
3528	35.270	-290.84937	31.88719	-475.05078	141.69055	32.66624	-408.71182	-300.28845	11.60065	158.64984	123.47736	22.32786	185.39810	-120.73541	710.89252	-799.08911	-161.66612	586.30365	-485.38724	-6.64079	591.33246	-476.17575	-218.85384	557.53967	396.37402	-78.34940	562.82239	406.74835	
3529	35.280	-289.18845	32.35974	-475.77579	142.06607	33.37922	-408.35196	-300.33777	11.13082	158.72356	123.38708	22.68370	185.37593	-120.10495	711.29999	-798.94928	-162.98447	588.23242	-485.18335	-8.38409	592.91980	-476.27887	-220.78410	557.91565	396.54456	-79.76171	562.35956	406.55530	
3530	35.290	-288.44925	32.86972	-475.27661	142.80788	33.64775	-408.42441	-299.79507	10.84713	158.73570	123.48066	23.02510	185.68584	-120.24926	712.56348	-799.08960	-164.45300	589.91119	-485.43719	-9.26518	594.14978	-476.19901	-222.49753	558.09296	396.35114	-81.71758	562.34058	406.49139	
3531	35.300	-287.59860	32.88615	-475.35107	144.95001	34.59064	-407.47147	-298.63998	10.62877	158.67146	123.71503	23.18721	185.90468	-119.79461	713.18494	-798.92957	-165.15674	591.12891	-485.43671	-10.43396	595.14105	-476.03796	-224.02243	558.14490	396.20627	-83.29465	562.55261	406.39929	
3532	35.310	-286.49268	32.88468	-475.63586	145.17809	34.58430	-408.10300	-298.13116	10.24845	158.81844	124.23774	23.15596	185.98898	-118.86888	713.77405	-798.74609	-165.87161	592.02032	-485.62247	-11.41352	596.19696	-476.15549	-225.73543	558.35742	396.00488	-84.95202	562.53381	406.61740	
3533	35.320	-285.69659	33.00560	-475.67276	145.79233	34.25624	-408.45679	-297.68289	9.95409	158.82202	125.62099	23.33200	185.98990	-117.96063	714.18823	-799.01880	-166.98285	593.17896	-485.78839	-12.11887	597.16107	-476.23062	-227.19025	558.61523	395.84970	-86.15714	562.59906	406.37857	
3534	35.330	-285.08109	33.06014	-475.62103	146.97758	34.79320	-408.00363	-296.60190	9.88025	158.91954	126.25613	23.27991	186.05017	-117.47857	714.63770	-798.89276	-167.18207	593.84619	-486.09589	-12.62125	597.86633	-476.19955	-228.44977	558.64746	395.46750	-87.51926	562.96307	406.12137	
3535	35.340	-284.59836	33.46396	-475.43259	147.65486	34.99045	-407.97488	-295.78220	9.77871	158.94760	126.60477	23.26293	185.97609	-116.96489	714.82080	-798.70819	-167.60017	594.49243	-486.34384	-13.05695	598.74609	-476.34570	-229.17776	558.76782	395.19046	-88.50792	563.18457	406.03928	
3536	35.350	-283.28577	33.50809	-475.51242	148.40846	35.95644	-407.76691	-295.43713	9.70690	158.82635	127.47088	23.46883	186.10750	-116.88351	714.91321	-798.57330	-167.99184	594.91888	-486.54822	-13.31997	599.00653	-476.26852	-230.19725	558.88873	394.65970	-89.08294	563.27814	405.71957	
3537	35.360	-282.47092	33.48005	-475.46469	149.01671	35.60000	-408.28082	-294.53668	9.32758	158.79486	128.66827	23.38141	185.99113	-117.15684	714.94586	-798.53259	-168.42816	595.27252	-486.91302	-13.54795	599.60651	-476.88190	-230.78722	558.99152	394.36069	-90.18694	563.42719	405.11728	
3538	35.370	-281.68283	33.38306	-475.39612	150.23648	35.86987	-407.99350	-293.58560	9.05178	158.82082	129.09190	23.29668	186.03055	-117.59927	714.93304	-798.62506	-168.62013	595.58099	-487.43082	-13.57719	599.85767	-477.17020	-231.35083	559.04596	393.89291	-90.68628	563.62915	404.70709	
